<svg width="426" height="128" viewBox="0 0 426 128" fill="none" xmlns="http://www.w3.org/2000/svg">
<circle cx="76" cy="50" r="40" stroke="#5D89C8" stroke-width="20"/>
<g clip-path="url(#clip0_14_157)">
<path d="M75.0633 26.0039C72.7488 30.6875 69.6086 35.625 65.9086 40.3984C65.1305 41.4063 63.6934 43.1797 62.9867 44.0117C62.4031 44.6953 60.3149 47.4609 59.9378 48.0469C59.1875 49.2148 58.2664 50.8984 58.0123 51.5625C57.663 52.4766 57.3652 53.6289 57.1191 55.0195L56.9921 55.7227L57.0119 57.1875C57.0318 58.6484 57.0596 59.0156 57.2223 59.9336C57.9885 64.2891 60.6166 68.4922 64.3365 71.3281C66.4485 72.9297 68.9019 74.0508 71.3593 74.5273C71.5737 74.5703 71.8238 74.6328 71.9191 74.6641C72.1652 74.75 72.6337 74.832 73.4277 74.9219C74.4202 75.0352 76.5798 75.0352 77.5723 74.9219C78.3623 74.832 78.8348 74.75 79.0809 74.6641C79.1762 74.6328 79.466 74.5625 79.732 74.5117C83.3685 73.7852 86.9136 71.6523 89.6172 68.5664C91.6577 66.2383 93.1306 63.2539 93.6387 60.4297C93.6864 60.1836 93.7499 59.8203 93.7856 59.6289C93.8174 59.4336 93.865 59.1094 93.8849 58.9063C93.9047 58.7031 93.9405 58.3945 93.9643 58.2227C93.9921 58.0313 94 57.4453 93.9921 56.7188C93.9722 55.3594 93.9166 54.9414 93.5792 53.5938C93.2457 52.2539 92.9162 51.457 92.146 50.1172C91.4831 48.9688 90.5819 47.5859 90.169 47.0898C89.8792 46.7383 89.371 46.082 88.8748 45.4023C88.7795 45.2695 88.3944 44.8047 88.0213 44.3672C82.8722 38.3281 79.3231 32.9414 77.0483 27.7148C76.8974 27.3711 76.556 26.625 76.2821 26.0547C75.6231 24.6719 75.7184 24.6758 75.0633 26.0039Z" fill="#F42C04"/>
</g>
<g clip-path="url(#clip1_14_157)">
<g clip-path="url(#clip2_14_157)">
<path d="M31.4057 46.018C31.2769 46.0267 31.0945 46.0786 31.0087 46.1305C30.8584 46.2299 30.7726 46.7099 29.6137 54.4851C28.7339 60.3878 28.7982 60.0505 28.6587 59.9942C28.6266 59.9856 28.4334 58.9737 28.2295 57.7499C27.8003 55.2591 27.7681 55.1337 27.5965 55.0732C27.3389 54.991 26.5664 54.9348 26.3517 54.9824C26.2337 55.004 25.6757 55.3283 25.107 55.6959C24.2808 56.2278 24.0233 56.3661 23.8409 56.3661C23.6907 56.3661 23.0147 56.1586 22.0597 55.8256C20.5145 55.2851 20.3428 55.2461 19.699 55.2851C19.6132 55.2894 18.905 55.4407 18.1431 55.6224L16.7375 55.9553L9.56969 55.977L2.39118 55.9986L2.17658 56.1067C2.01562 56.1888 1.9727 56.258 2.01562 56.3964C2.1122 56.7424 1.45765 56.7164 9.80576 56.7034L17.274 56.6905L18.1861 56.4699C19.302 56.1975 19.7419 56.1067 19.9351 56.1067C20.0209 56.1067 20.8042 56.3618 21.6841 56.6732C23.7336 57.3953 23.6585 57.378 24.2486 57.3391C24.7208 57.3132 24.7637 57.3002 25.3324 56.9413C25.8367 56.6256 25.944 56.578 26.0728 56.6299C26.1801 56.6732 26.3196 57.2959 26.5985 58.9391C26.8131 60.1759 27.178 62.2861 27.414 63.631C27.6501 64.9759 27.8432 66.2559 27.8432 66.4721C27.8432 66.8526 27.854 66.8742 28.1115 66.9434C28.3154 66.9953 28.53 67.0083 28.9377 66.9953C29.6781 66.9651 29.7961 66.8915 29.7425 66.5283C29.7103 66.2472 29.9786 64.2624 30.9014 58.0959C31.1696 56.3013 31.5344 53.9013 31.7061 52.764C31.8671 51.6224 32.0388 50.684 32.071 50.6667C32.1031 50.6537 32.1568 50.6537 32.1783 50.6624C32.1997 50.671 32.7148 52.2753 33.3157 54.2256C33.9165 56.1759 34.4638 57.8191 34.5389 57.8797C34.6462 57.9748 34.7428 57.9878 35.2686 58.0007C36.0089 58.018 35.8802 58.0786 37.5326 56.9067C38.4554 56.258 38.8095 56.0418 38.9597 56.0418C39.0885 56.0418 39.3246 56.1413 39.6143 56.3229C39.8718 56.4786 40.2259 56.6559 40.4191 56.7207L40.7624 56.8418H49.4217H58.0703L58.4887 56.7294C58.7141 56.6645 59.154 56.5305 59.4545 56.4267C59.7549 56.3229 60.109 56.2364 60.2378 56.2364C60.506 56.2364 60.624 56.3013 62.2121 57.3132L63.371 58.0526H63.9504C64.6586 58.0526 64.723 58.0267 65.5814 57.3348C65.9248 57.0624 66.2681 56.8418 66.3325 56.8418C66.5149 56.8418 66.5471 56.9283 66.6866 57.6202C66.8368 58.3899 67.545 62.031 68.0708 64.6818C68.5322 67.0213 68.5 66.9607 69.2511 66.9607C69.8306 66.9607 70.1632 66.8742 70.2598 66.7013C70.3027 66.6191 70.5066 65.3348 70.7104 63.8472C71.0753 61.2007 71.4723 58.4115 72.202 53.3261C72.3951 51.9294 72.5882 50.7705 72.6312 50.7575C72.6633 50.7402 72.717 50.7402 72.7385 50.7489C72.7599 50.7575 73.2428 52.2148 73.8115 53.9878C74.9811 57.6288 75.024 57.7499 75.1742 57.8191C75.303 57.884 76.1614 57.9359 76.4511 57.9013C76.5799 57.884 77.052 57.5553 77.846 56.9283C78.7366 56.2105 79.08 55.977 79.2302 55.977C79.3483 55.977 79.6702 56.1024 80.0243 56.2883C80.3462 56.4613 80.7325 56.6429 80.872 56.6905C81.1188 56.777 81.2368 56.777 98.3622 56.7553C114.704 56.7337 115.616 56.7294 115.799 56.6559C116.067 56.5521 116.067 56.1802 115.799 56.0764C115.616 56.0029 114.822 55.9986 98.888 56.0159C89.7029 56.0245 82.0737 56.0159 81.945 56.0029C81.8162 55.9856 81.2797 55.7521 80.7539 55.4797C80.2174 55.2072 79.6702 54.9607 79.5414 54.9261C79.3805 54.8872 79.1229 54.8699 78.8332 54.8829C78.286 54.9088 78.2109 54.9521 77.2666 55.7088C76.6979 56.1715 76.5477 56.2451 76.3975 56.1499C76.3653 56.1283 75.7107 54.1694 74.9489 51.7953C73.0926 46.0224 73.1677 46.2559 73.0174 46.1824C72.835 46.0959 71.8049 46.0959 71.5796 46.1824C71.3757 46.2645 71.3435 46.3943 71.086 48.258C70.968 49.1143 70.7212 50.818 70.5495 52.0418C70.3778 53.2656 70.0345 55.7002 69.7984 57.4472C69.5516 59.1942 69.3155 60.6645 69.2726 60.7121C69.1975 60.7856 69.176 60.7769 69.1224 60.6472C69.0795 60.5651 68.8327 59.3283 68.5537 57.9013C68.2854 56.4743 68.0064 55.2591 67.9313 55.1986C67.8455 55.1207 67.6845 55.0818 67.3626 55.0515C66.5042 54.978 66.5042 54.9824 65.238 55.977C64.2616 56.751 64.0577 56.8894 63.8646 56.8764C63.7144 56.8678 63.3066 56.6429 62.534 56.1499C61.9117 55.7564 61.343 55.4061 61.2571 55.3672C61.1713 55.3283 60.8923 55.2807 60.6562 55.2678C60.1519 55.2332 60.1197 55.2418 58.6926 55.7175C58.2205 55.8775 57.7269 56.0288 57.5981 56.0591C57.244 56.1326 41.6852 56.1283 41.4492 56.0505C41.3526 56.0245 40.8912 55.7607 40.4083 55.471C39.9362 55.1813 39.4533 54.9218 39.346 54.9002C39.1422 54.857 38.3696 54.9218 38.1764 54.9953C38.1335 55.0126 37.6614 55.3326 37.1249 55.7045C36.5991 56.0764 36.1055 56.3878 36.0304 56.3964C35.966 56.4051 35.8802 56.3791 35.848 56.3359C35.8158 56.2926 35.0861 54.0007 34.2277 51.2418C33.3693 48.4872 32.6397 46.1953 32.6075 46.1478C32.5109 46.018 32.0495 45.9705 31.4057 46.018Z" fill="white"/>
</g>
</g>
<path d="M173.28 49.384H186.4V68.328C183.755 70.1627 180.683 71.5707 177.184 72.552C173.685 73.5333 170.251 74.024 166.88 74.024C162.101 74.024 157.813 73.0427 154.016 71.08C150.219 69.0747 147.232 66.3013 145.056 62.76C142.923 59.176 141.856 55.1227 141.856 50.6C141.856 46.0773 142.923 42.0453 145.056 38.504C147.232 34.92 150.24 32.1467 154.08 30.184C157.963 28.1787 162.336 27.176 167.2 27.176C171.595 27.176 175.52 27.9227 178.976 29.416C182.475 30.8667 185.376 33 187.68 35.816L178.016 44.328C175.2 41.0427 171.851 39.4 167.968 39.4C164.64 39.4 161.995 40.4027 160.032 42.408C158.069 44.4133 157.088 47.144 157.088 50.6C157.088 53.9707 158.048 56.68 159.968 58.728C161.931 60.776 164.533 61.8 167.776 61.8C169.696 61.8 171.531 61.4373 173.28 60.712V49.384ZM192.388 25.512H206.852V73H192.388V25.512ZM251.535 37.992V73H237.775V69.672C236.495 70.9947 235.001 71.9973 233.295 72.68C231.588 73.32 229.775 73.64 227.855 73.64C223.417 73.64 219.855 72.296 217.167 69.608C214.479 66.8773 213.135 62.7813 213.135 57.32V37.992H227.599V54.824C227.599 57.2133 227.983 58.92 228.751 59.944C229.519 60.968 230.649 61.48 232.143 61.48C233.551 61.48 234.724 60.9253 235.663 59.816C236.601 58.664 237.071 56.872 237.071 54.44V37.992H251.535ZM270.824 39.912H257.704V28.2H299.048V39.912H285.928V73H270.824V39.912ZM336.271 55.464C336.271 55.6773 336.207 56.808 336.079 58.856H311.759C312.271 60.1787 313.125 61.2027 314.319 61.928C315.514 62.6107 317.007 62.952 318.799 62.952C320.335 62.952 321.615 62.76 322.639 62.376C323.706 61.992 324.858 61.3307 326.095 60.392L333.647 68.008C330.234 71.7627 325.135 73.64 318.351 73.64C314.127 73.64 310.415 72.872 307.215 71.336C304.015 69.7573 301.541 67.5813 299.791 64.808C298.042 62.0347 297.167 58.92 297.167 55.464C297.167 51.9653 298.021 48.8507 299.727 46.12C301.477 43.3467 303.845 41.192 306.831 39.656C309.861 38.12 313.253 37.352 317.007 37.352C320.549 37.352 323.77 38.056 326.671 39.464C329.615 40.872 331.941 42.9413 333.647 45.672C335.397 48.4027 336.271 51.6667 336.271 55.464ZM317.135 47.208C315.642 47.208 314.405 47.6133 313.423 48.424C312.442 49.2347 311.802 50.3867 311.503 51.88H322.767C322.469 50.4293 321.829 49.2987 320.847 48.488C319.866 47.6347 318.629 47.208 317.135 47.208ZM359.652 73.64C355.684 73.64 352.121 72.872 348.964 71.336C345.849 69.8 343.396 67.6453 341.604 64.872C339.854 62.0987 338.98 58.9627 338.98 55.464C338.98 51.9653 339.854 48.8507 341.604 46.12C343.396 43.3467 345.849 41.192 348.964 39.656C352.121 38.12 355.684 37.352 359.652 37.352C363.918 37.352 367.566 38.2693 370.596 40.104C373.625 41.9387 375.716 44.4773 376.868 47.72L365.668 53.224C364.302 50.152 362.276 48.616 359.588 48.616C357.881 48.616 356.452 49.2133 355.3 50.408C354.19 51.6027 353.636 53.288 353.636 55.464C353.636 57.6827 354.19 59.3893 355.3 60.584C356.452 61.7787 357.881 62.376 359.588 62.376C362.276 62.376 364.302 60.84 365.668 57.768L376.868 63.272C375.716 66.5147 373.625 69.0533 370.596 70.888C367.566 72.7227 363.918 73.64 359.652 73.64ZM404.531 37.352C408.84 37.352 412.296 38.6533 414.899 41.256C417.544 43.8587 418.867 47.784 418.867 53.032V73H404.403V55.528C404.403 51.5173 402.973 49.512 400.115 49.512C398.493 49.512 397.171 50.088 396.147 51.24C395.165 52.3493 394.675 54.12 394.675 56.552V73H380.211V25.512H394.675V40.808C397.363 38.504 400.648 37.352 404.531 37.352Z" fill="#5D89C8"/>
<defs>
<clipPath id="clip0_14_157">
<rect width="37" height="50" fill="white" transform="translate(57 25)"/>
</clipPath>
<clipPath id="clip1_14_157">
<rect width="160" height="80" fill="white" transform="translate(0 48)"/>
</clipPath>
<clipPath id="clip2_14_157">
<rect width="55" height="39" fill="white" transform="translate(48 37)"/>
</clipPath>
</defs>
</svg>
